<svg width="142" height="120" viewBox="0 0 142 120" fill="none" xmlns="http://www.w3.org/2000/svg">
<g clip-path="url(#clip0_23_5979)">
<path d="M67.0886 108.642C68.2521 114.276 69.8242 122.455 69.9678 125.951H51.032C51.4039 122.413 51.3763 112.67 51.3468 109.147C58.8413 108.987 65.5257 108.709 67.0886 108.642Z" fill="url(#paint0_linear_23_5979)" fill-opacity="0.9"/>
<path d="M68.1472 105.979C67.8655 107.646 67.4329 108.626 67.4329 108.626C67.4329 108.626 67.3169 108.631 67.0886 108.642C65.5275 108.709 58.8413 108.987 51.3487 109.147C44.8631 109.279 37.7681 109.335 32.8676 109.092C29.8153 108.942 27.6117 108.676 26.9361 108.245C23.7458 106.201 23.8231 102.623 21.0102 82.84C19.6424 73.1806 20.434 67.7094 21.6085 64.635C22.8327 61.406 24.4766 60.8188 24.4766 60.8188C29.9037 58.7808 32.4792 66.5956 40.4117 61.2072C42.006 60.121 43.0755 58.5986 43.7788 56.8534C44.4213 58.6152 45.8167 62.7296 47.0685 68.4568C47.6226 70.9991 48.1491 73.8673 48.5689 76.9858C49.8207 86.2954 50.7338 92.6705 51.1278 95.3785C57.5692 96.4868 67.4329 97.2342 67.4329 97.2342C67.4881 97.4109 67.5433 97.584 67.593 97.7552C68.6074 101.122 68.4785 104.025 68.1527 105.98H68.1472V105.979Z" fill="#FF622E"/>
<path d="M84.4467 116.989L86.5233 125.951H69.9678C69.8242 122.457 68.2502 114.276 67.0886 108.642C67.3151 108.631 67.4329 108.626 67.4329 108.626C67.4329 108.626 67.8655 107.645 68.1472 105.979H68.1527L69.1339 105.73H69.1394C69.1615 106.157 69.2664 106.621 69.5113 107.087H82.1493L84.4467 116.989Z" fill="#FF622E"/>
<path d="M51.3487 109.147C51.3763 112.669 51.4039 122.411 51.0339 125.951H30.5573L32.8676 109.092C37.7682 109.335 44.8631 109.279 51.3487 109.147Z" fill="#FF622E"/>
<path d="M41.2898 13.5695C44.2537 11.4101 47.9853 10.324 51.6469 10.567L51.6745 10.7437C51.4702 10.7768 51.2695 10.8265 51.0707 10.8818C39.3458 14.1163 38.348 24.4954 38.2652 26.2627C36.798 27.0212 35.7394 29.2156 35.7394 31.8076C35.7394 35.0256 37.3797 37.6397 39.4066 37.6397C39.4066 37.6397 41.0174 37.9784 42.3189 36.8149L43.4106 39.4953C43.4161 39.5009 43.4161 39.5064 43.4161 39.5119C43.5431 39.9445 46.496 50.0678 43.7769 56.8535C43.0737 58.5987 42.0041 60.1211 40.4099 61.2073C32.4792 66.5957 29.9037 58.7809 24.4748 60.8188C24.4748 60.8188 22.829 61.4061 21.6066 64.6351C20.1118 64.2466 18.9262 62.807 18.6372 61.2459C18.304 59.4234 18.9649 57.5456 19.9719 55.9901C20.9752 54.4345 22.3099 53.1274 23.5101 51.7136C24.7123 50.3071 25.815 48.7331 26.2071 46.9235C26.7336 44.5082 25.9752 41.8167 27.1036 39.6187C28.118 37.6526 30.3547 36.6658 31.833 35.0274C33.3002 33.3926 33.9537 31.1891 34.3035 29.0241C34.6478 26.8537 34.7306 24.6427 35.2608 22.5164C36.1555 18.9524 38.3278 15.7289 41.2898 13.5695Z" fill="#3F3F44"/>
<path d="M47.0667 68.4549C47.0667 68.4549 49.6476 73.5064 55.8847 74.0937C61.9708 74.6588 63.2613 67.4976 63.3221 67.1478C65.1446 77.7424 67.7035 93.5504 67.431 97.2323C67.431 97.2323 57.5673 96.4849 51.1259 95.3766C50.7319 92.6686 49.8188 86.2935 48.567 76.9839C48.1473 73.8672 47.6208 70.9972 47.0667 68.4549Z" fill="#FFEFEA"/>
<path d="M41.1573 26.1246C40.2221 25.8043 39.4066 25.9755 39.4066 25.9755C39.0071 25.9755 38.626 26.0749 38.2652 26.2627C38.348 24.4954 39.3458 14.1162 51.0707 10.8817C51.2695 10.8265 51.4702 10.7768 51.6745 10.7437C52.9705 10.4896 54.3218 10.5725 55.5405 11.0879C55.6565 11.1321 55.7669 11.1873 55.8847 11.2426C55.8847 11.2426 41.1407 11.5353 41.1573 26.1191V26.1246Z" fill="white"/>
<path d="M138.957 70.8261L127.326 107.087H116.626C117.285 106.017 117.817 105.01 118.011 104.545C118.443 103.519 117.856 101.748 117.6 100.391C117.34 99.0291 116.93 99.1451 116.93 99.1451C116.93 99.1451 116.88 97.3336 116.006 97.2342C115.137 97.1293 114.161 98.6462 114.161 98.6462C114.161 98.6462 113.519 97.7994 112.567 98.2854C111.621 98.7732 111.698 101.774 111.698 101.774C108.309 102.028 106.825 106.443 106.825 106.443C104.205 105.701 100.306 107.085 100.306 107.085H82.1511H69.5132C69.2701 106.619 69.1634 106.155 69.1413 105.728C69.0805 104.67 69.5132 103.851 69.5132 103.851H77.7771H86.527H92.8414L104.472 70.8242H138.957V70.8261Z" fill="white"/>
<path d="M116.624 107.087C115.822 108.388 114.824 109.773 114.005 110.349C112.792 111.201 105.299 111.689 102.573 111.838L100.301 107.087C100.301 107.087 104.2 105.702 106.82 106.444C106.82 106.444 108.303 102.03 111.693 101.776C111.693 101.776 111.615 98.7732 112.561 98.2872C113.513 97.7994 114.156 98.648 114.156 98.648C114.156 98.648 115.13 97.1311 116 97.236C116.875 97.3354 116.924 99.1469 116.924 99.1469C116.924 99.1469 117.335 99.0309 117.595 100.393C117.849 101.75 118.436 103.523 118.005 104.546C117.815 105.01 117.283 106.017 116.624 107.087Z" fill="white"/>
<path d="M102.574 111.838L102.84 112.398C102.84 112.398 89.4578 116.336 84.4468 116.989L82.1475 107.087H100.303L102.574 111.838Z" fill="#FF622E"/>
<path d="M88.1397 95.616C88.1397 95.616 93.0421 102.262 92.8359 103.852H86.5215C86.5215 103.852 84.4173 102.7 84.0289 101.776L78.2299 102.818L77.7697 103.854H69.5058C69.5058 103.854 69.0732 104.673 69.1339 105.732H69.1284L68.1472 105.98C68.473 104.025 68.6019 101.124 67.5875 97.7552C67.5875 97.7552 75.8956 95.8222 79.4063 95.003C81.7774 94.4489 84.7174 94.2446 86.5178 94.6256C87.3922 94.8079 87.9961 95.1282 88.1397 95.616Z" fill="white"/>
<path d="M63.3221 67.1479C62.3409 61.4594 61.5769 57.2787 61.5769 57.2787C61.0283 55.9882 60.6472 54.7253 60.3914 53.5674C60.5073 53.5895 64.3622 54.3038 67.4476 58.3575C67.4476 58.3575 76.8585 59.5486 80.3636 63.2028C83.8632 66.8644 86.5215 94.6109 86.5215 94.6109V94.622C84.7211 94.239 81.7811 94.4452 79.41 94.9993C75.8993 95.8186 67.5912 97.7515 67.5912 97.7515C67.5415 97.5803 67.4863 97.4073 67.4311 97.2305C67.7035 93.5505 65.1446 77.7443 63.3221 67.1479Z" fill="#FF622E"/>
<path d="M86.5233 103.852H77.7734L78.2336 102.816L84.0325 101.774C84.4191 102.7 86.5233 103.852 86.5233 103.852Z" fill="#FF622E"/>
<path d="M66.9671 17.7116C67.9299 19.5562 64.8132 23.4056 64.8132 23.4056C63.7326 17.4796 56.9598 16.399 56.9598 16.399C56.9598 16.399 52.3189 17.6066 51.0836 22.4299C50.1318 26.1688 45.6124 28.273 43.6168 29.0315H43.6113C43.0958 27.1979 42.0667 26.4284 41.1573 26.1246V26.1191C41.1407 11.5371 55.8847 11.2426 55.8847 11.2426C58.2706 12.511 66.008 15.8614 66.9671 17.7116Z" fill="#3F3F44"/>
<path d="M66.0411 33.8013C67.1936 38.7148 63.6811 46.0472 59.8648 47.7703C59.4598 47.9526 59.0566 48.0685 58.6516 48.1201C55.0729 48.5417 49.1524 46.7357 45.292 42.2383C44.5888 41.4191 43.9573 40.5097 43.4143 39.5137C43.4143 39.5082 43.4143 39.5027 43.4087 39.4972L42.3171 36.8168C43.2026 36.0307 43.9463 34.5524 43.9463 31.8095C43.9463 30.6846 43.8193 29.7715 43.6076 29.0352H43.6131C45.6068 28.2767 50.1263 26.1725 51.0799 22.4336C52.3152 17.6104 56.9561 16.4027 56.9561 16.4027C56.9561 16.4027 63.7289 17.4833 64.8096 23.4093C65.892 29.3316 64.7727 28.3724 66.0411 33.8013Z" fill="white"/>
<path d="M45.2939 42.2364C45.4043 42.5512 49.2813 52.9985 60.0931 52.0062C60.1704 52.4996 60.2643 53.0206 60.3858 53.5674C60.3858 53.5674 60.3858 53.5674 60.3913 53.5674C60.6454 54.7253 61.0283 55.9882 61.5769 57.2787C61.5769 57.2787 62.3409 61.4594 63.3221 67.1479C63.2614 67.4977 61.9709 74.6589 55.8848 74.0937C49.6477 73.5065 47.0667 68.4549 47.0667 68.4549C45.8149 62.7278 44.4194 58.6133 43.777 56.8516C46.496 50.0677 43.545 39.9426 43.4161 39.51C43.9592 40.5078 44.5906 41.4172 45.2939 42.2364Z" fill="white"/>
<path d="M59.8667 47.7684C59.8667 47.7684 59.712 49.5081 60.0931 52.0063C49.2813 52.9985 45.4043 42.5512 45.2939 42.2365C49.1543 46.7338 55.0747 48.5398 58.6535 48.1182C59.0585 48.0685 59.4617 47.9525 59.8667 47.7684Z" fill="#3F3F44"/>
<path d="M43.6113 29.0333C43.8212 29.7697 43.95 30.6846 43.95 31.8076C43.95 34.5487 43.2081 36.0288 42.3208 36.8149C41.0193 37.9784 39.4084 37.6396 39.4084 37.6396C41.4353 37.6396 43.0811 35.0255 43.0811 31.8076C43.0811 28.5841 41.4353 25.9755 39.4084 25.9755C39.4084 25.9755 40.2221 25.8043 41.1592 26.1246C42.0649 26.4284 43.0958 27.1997 43.6113 29.0333Z" fill="white"/>
<path d="M38.2652 26.2626C38.626 26.0749 39.0071 25.9755 39.4066 25.9755C41.4334 25.9755 43.0792 28.5841 43.0792 31.8075C43.0792 35.0255 41.4334 37.6396 39.4066 37.6396C37.3797 37.6396 35.7394 35.0255 35.7394 31.8075C35.7413 29.2155 36.798 27.0211 38.2652 26.2626Z" fill="url(#paint1_linear_23_5979)" fill-opacity="0.9"/>
<path d="M38.2652 26.4652C38.2284 26.4652 38.1897 26.4542 38.1566 26.4339C38.0958 26.3952 38.0609 26.3271 38.0645 26.2553C38.1603 24.2266 39.2335 13.9414 51.0173 10.6903C51.1848 10.6443 51.4076 10.5853 51.6414 10.5467C53.0368 10.2724 54.4157 10.3939 55.6178 10.9038C55.7135 10.9406 55.8129 10.9867 55.9142 11.0364L55.9694 11.064C56.0541 11.1045 56.1001 11.1965 56.0799 11.2886C56.0596 11.3806 55.9805 11.4451 55.8866 11.4469C55.7411 11.4506 41.3414 11.909 41.3561 26.1209C41.3561 26.1854 41.3248 26.2498 41.2714 26.2885C41.218 26.3271 41.1499 26.3382 41.0892 26.3179C40.2203 26.0197 39.4526 26.1743 39.4452 26.1743C39.4323 26.1762 39.4176 26.178 39.4047 26.178C39.0457 26.178 38.6923 26.2664 38.3572 26.4431C38.3296 26.456 38.2983 26.4652 38.2652 26.4652ZM53.0828 10.8063C52.6336 10.8063 52.1753 10.8523 51.7132 10.9425C51.4904 10.9793 51.2824 11.0327 51.1241 11.0769C40.1448 14.1052 38.6794 23.3688 38.4861 25.9442C38.7788 25.8338 39.0789 25.7767 39.3863 25.7749C39.5152 25.7509 40.1669 25.6478 40.9566 25.8559C41.0947 13.5437 51.8715 11.4561 55.0232 11.11C54.4101 10.9075 53.7566 10.8063 53.0828 10.8063Z" fill="#3F3F44"/>
<path d="M127.326 107.288H116.626C116.553 107.288 116.486 107.249 116.451 107.185C116.416 107.12 116.418 107.043 116.455 106.98C117.109 105.92 117.639 104.913 117.825 104.465C118.138 103.724 117.854 102.474 117.606 101.371C117.532 101.043 117.46 100.725 117.403 100.426C117.21 99.4158 116.954 99.3421 116.95 99.3403C116.891 99.3569 116.843 99.344 116.794 99.3072C116.744 99.2703 116.731 99.2096 116.729 99.1488C116.716 98.7236 116.554 97.4975 115.982 97.4331C115.373 97.3576 114.583 98.3609 114.331 98.7549C114.296 98.8101 114.235 98.8451 114.169 98.8469C114.104 98.8488 114.04 98.8193 114.001 98.7678C113.979 98.7402 113.445 98.0627 112.657 98.4659C112.05 98.7788 111.867 100.658 111.897 101.77C111.901 101.877 111.818 101.967 111.711 101.977C108.491 102.218 107.028 106.467 107.013 106.509C106.978 106.61 106.871 106.667 106.768 106.638C104.24 105.922 100.409 107.262 100.371 107.277C100.349 107.284 100.327 107.288 100.303 107.288H69.5094C69.434 107.288 69.3658 107.245 69.3309 107.181C69.0952 106.732 68.9627 106.247 68.9369 105.741C68.8743 104.642 69.3125 103.795 69.3309 103.76C69.3658 103.694 69.434 103.654 69.5094 103.654H92.6959L104.279 70.7617C104.307 70.6807 104.384 70.6273 104.469 70.6273H138.957C139.021 70.6273 139.082 70.6586 139.119 70.7102C139.155 70.7617 139.167 70.8298 139.148 70.8906L127.517 107.151C127.49 107.231 127.412 107.288 127.326 107.288ZM116.983 106.886H127.178L138.681 71.0286H104.61L93.0273 103.921C92.9997 104.002 92.9224 104.055 92.8377 104.055H69.6365C69.5297 104.302 69.294 104.948 69.3382 105.719C69.3603 106.128 69.4579 106.52 69.6328 106.886H100.268C100.671 106.746 104.154 105.585 106.694 106.203C107.013 105.369 108.489 101.953 111.492 101.594C111.49 100.874 111.554 98.58 112.473 98.1087C113.185 97.7424 113.797 98.0277 114.135 98.3278C114.459 97.8823 115.236 96.9379 116.028 97.0355C116.908 97.1349 117.086 98.4861 117.121 98.9795C117.14 98.9887 117.16 98.9979 117.18 99.0108C117.451 99.1783 117.657 99.6293 117.795 100.353C117.85 100.647 117.922 100.962 117.994 101.284C118.27 102.503 118.555 103.762 118.193 104.622C118.025 105.027 117.583 105.887 116.983 106.886Z" fill="#3F3F44"/>
<path d="M102.574 112.039C102.497 112.039 102.427 111.995 102.392 111.925L100.12 107.173C100.096 107.122 100.095 107.063 100.117 107.009C100.139 106.956 100.181 106.916 100.235 106.897C100.393 106.84 104.053 105.559 106.694 106.203C107.013 105.369 108.489 101.952 111.492 101.593C111.49 100.874 111.554 98.5799 112.473 98.1086C113.185 97.7423 113.797 98.0276 114.135 98.3277C114.459 97.8822 115.236 96.9378 116.028 97.0353C116.908 97.1347 117.086 98.486 117.121 98.9794C117.14 98.9886 117.16 98.9978 117.18 99.0107C117.451 99.1782 117.657 99.6292 117.795 100.353C117.85 100.647 117.922 100.962 117.994 101.284C118.27 102.503 118.555 103.762 118.193 104.622C118.007 105.067 117.49 106.063 116.794 107.192C116.078 108.352 115.032 109.87 114.119 110.513C112.876 111.387 105.638 111.871 102.584 112.039C102.582 112.039 102.578 112.039 102.574 112.039ZM100.582 107.206L102.696 111.632C107.519 111.363 112.952 110.844 113.889 110.185C114.559 109.714 115.468 108.578 116.453 106.982C117.107 105.922 117.637 104.915 117.823 104.467C118.136 103.725 117.852 102.475 117.604 101.373C117.53 101.045 117.458 100.726 117.401 100.428C117.208 99.4175 116.952 99.3439 116.948 99.342C116.889 99.3586 116.842 99.3457 116.792 99.3089C116.742 99.2721 116.729 99.2113 116.727 99.1506C116.715 98.7253 116.553 97.4993 115.98 97.4348C115.371 97.3593 114.581 98.3626 114.329 98.7566C114.294 98.8118 114.233 98.8468 114.167 98.8487C114.102 98.8505 114.038 98.821 113.999 98.7695C113.977 98.7419 113.443 98.0644 112.655 98.4676C112.048 98.7805 111.866 100.66 111.895 101.772C111.899 101.879 111.816 101.969 111.709 101.978C108.493 102.219 107.026 106.468 107.011 106.511C106.976 106.612 106.869 106.669 106.766 106.639C104.583 106.017 101.424 106.936 100.582 107.206Z" fill="#3F3F44"/>
<path d="M86.5233 126.152C86.4313 126.152 86.3484 126.089 86.3282 125.995L81.9523 107.133C81.9394 107.074 81.9523 107.01 81.9909 106.962C82.0296 106.914 82.0867 106.886 82.1493 106.886H100.305C100.382 106.886 100.452 106.93 100.487 107L102.758 111.752C102.806 111.851 102.764 111.973 102.665 112.021C102.563 112.068 102.444 112.026 102.396 111.927L100.179 107.289H82.4051L86.724 125.907C86.7497 126.015 86.6816 126.124 86.573 126.148C86.5528 126.15 86.538 126.152 86.5233 126.152Z" fill="#3F3F44"/>
<path d="M68.1508 106.179C68.0606 106.179 67.9796 106.119 67.9557 106.028C67.9281 105.922 67.9925 105.811 68.1011 105.783L68.9295 105.574C68.9167 104.556 69.3106 103.792 69.329 103.758C69.364 103.692 69.4321 103.652 69.5076 103.652H77.6408L78.0477 102.735C78.0753 102.674 78.1305 102.63 78.1968 102.619L83.9957 101.577C84.0877 101.562 84.1798 101.61 84.2166 101.697C84.5056 102.383 85.9747 103.315 86.5748 103.65H92.6389C92.51 102.172 89.2718 97.4883 87.9795 95.7338C87.9647 95.7154 87.9555 95.6934 87.9482 95.6713C87.8359 95.292 87.3296 94.9975 86.4828 94.8189C84.8112 94.4655 81.9228 94.6182 79.4578 95.1945C75.9472 96.0137 67.639 97.9466 67.639 97.9466L67.547 97.5545C67.547 97.5545 75.8551 95.6216 79.3658 94.8023C81.921 94.2059 84.8131 94.0531 86.5656 94.425C87.5579 94.633 88.1488 95.003 88.3237 95.5203C88.9165 96.3248 93.2445 102.271 93.0383 103.874C93.0255 103.976 92.9408 104.049 92.8395 104.049H86.5251C86.492 104.049 86.4589 104.04 86.4276 104.025C86.3429 103.979 84.4578 102.939 83.9202 101.997L78.3753 102.993L77.9593 103.932C77.9262 104.003 77.8544 104.051 77.7752 104.051H69.6365C69.5297 104.298 69.294 104.944 69.3382 105.715C69.3419 105.771 69.3217 105.824 69.283 105.864C69.2517 105.899 69.2094 105.92 69.1633 105.927L68.2005 106.172C68.184 106.177 68.1674 106.179 68.1508 106.179Z" fill="#3F3F44"/>
<path d="M86.5233 104.053H77.7734C77.7053 104.053 77.6427 104.018 77.604 103.961C77.5672 103.904 77.5617 103.832 77.5893 103.77L78.0495 102.733C78.0771 102.672 78.1324 102.628 78.1986 102.617L83.9976 101.575C84.0896 101.56 84.1817 101.608 84.2185 101.695C84.5149 102.4 86.0539 103.363 86.6227 103.674C86.7037 103.718 86.7442 103.812 86.7203 103.9C86.6945 103.99 86.6154 104.053 86.5233 104.053ZM78.0808 103.652H85.7925C85.1702 103.256 84.2645 102.608 83.9166 102L78.3717 102.996L78.0808 103.652Z" fill="#3F3F44"/>
<path d="M61.5769 57.4793C61.4996 57.4793 61.4241 57.4333 61.391 57.3559C60.8847 56.1649 60.4852 54.9186 60.2036 53.652C60.1962 53.6391 60.1925 53.6244 60.1888 53.6096C60.0784 53.1108 59.9808 52.5953 59.8925 52.0357C59.5114 49.5412 59.6568 47.8218 59.6642 47.75C59.6715 47.6782 59.7157 47.6137 59.782 47.5843C63.37 45.9643 67.0242 38.8749 65.8442 33.8454C65.1778 30.992 65.1649 29.9003 65.152 28.6356C65.1391 27.52 65.1262 26.2571 64.6126 23.4387C63.6148 17.9656 57.5361 16.7082 56.9672 16.6033C56.5143 16.7377 52.4054 18.0668 51.2751 22.4777C50.3215 26.2221 45.8903 28.3558 43.8506 29.1547C44.0476 29.9187 44.147 30.8079 44.147 31.8057C44.147 34.2283 43.5763 35.9643 42.4515 36.9621C42.3686 37.0358 42.2416 37.0284 42.168 36.9456C42.0943 36.8627 42.1017 36.7357 42.1846 36.6621C43.221 35.7434 43.7457 34.1087 43.7457 31.8057C43.7457 30.7674 43.6352 29.8525 43.4161 29.0866C43.3996 29.0259 43.4106 28.9596 43.4493 28.9099C43.4787 28.8712 43.5192 28.8455 43.5653 28.8344C45.4743 28.1054 49.9551 26.0325 50.8866 22.3783C52.1366 17.4961 56.8604 16.2148 56.9065 16.202C56.9341 16.1946 56.9617 16.1928 56.9893 16.1983C57.0593 16.2093 63.9167 17.371 65.0084 23.3669C65.5275 26.2185 65.5423 27.4997 65.5552 28.6301C65.568 29.8709 65.5809 30.9423 66.2363 33.7515C67.3519 38.5085 64.0714 45.9772 60.0581 47.8972C60.0324 48.3225 59.9735 49.8873 60.2919 51.9712C60.3766 52.5069 60.4687 53.0003 60.5736 53.4771C60.581 53.49 60.5846 53.5047 60.5883 53.5194C60.8645 54.775 61.2603 56.0121 61.7628 57.1958C61.807 57.297 61.7592 57.4167 61.6561 57.459C61.6303 57.4756 61.6045 57.4793 61.5769 57.4793Z" fill="#3F3F44"/>
<path d="M39.9717 37.8881C39.6219 37.8881 39.39 37.8421 39.366 37.8366C39.2648 37.8163 39.1967 37.7206 39.2077 37.6194C39.2188 37.5163 39.3053 37.4389 39.4084 37.4389C41.3229 37.4389 42.8785 34.9132 42.8785 31.8075C42.8785 28.7019 41.3211 26.1761 39.4084 26.1761C39.3053 26.1761 39.2188 26.0988 39.2077 25.9957C39.1967 25.8926 39.2648 25.7987 39.366 25.7785C39.401 25.7711 40.246 25.5999 41.2235 25.935C42.0925 26.2258 43.2467 26.9917 43.8064 28.978C44.0346 29.7788 44.1525 30.7324 44.1525 31.8075C44.1525 34.2302 43.5818 35.9662 42.457 36.964C41.5825 37.7427 40.5921 37.8881 39.9717 37.8881ZM40.94 26.2682C42.3152 27.196 43.2799 29.3296 43.2799 31.8075C43.2799 34.2854 42.317 36.4172 40.9419 37.3451C41.3469 37.2291 41.7832 37.0229 42.1845 36.6639C43.2209 35.7453 43.7456 34.1105 43.7456 31.8075C43.7456 30.7693 43.6352 29.8543 43.4161 29.0885C43.0111 27.6489 42.2084 26.6898 41.0928 26.316C41.0413 26.2976 40.9916 26.2811 40.94 26.2682Z" fill="#3F3F44"/>
<path d="M39.4066 37.8402C37.2748 37.8402 35.5388 35.1341 35.5388 31.8075C35.5388 29.1989 36.5973 26.8996 38.1713 26.0859C38.5652 25.8797 38.9813 25.7748 39.4047 25.7748C41.5402 25.7748 43.278 28.4809 43.278 31.8075C43.2799 35.1341 41.542 37.8402 39.4066 37.8402ZM39.4066 26.1761C39.0476 26.1761 38.6941 26.2645 38.3591 26.4412C38.3591 26.4412 38.3591 26.4412 38.3572 26.4412C36.9121 27.1886 35.9401 29.3443 35.9401 31.8057C35.9401 34.9113 37.4938 37.4371 39.4047 37.4371C41.3193 37.4371 42.8749 34.9113 42.8749 31.8057C42.8749 28.7 41.3211 26.1761 39.4066 26.1761Z" fill="#3F3F44"/>
<path d="M57.5084 48.3869C56.0118 48.3869 53.9499 48.0482 51.4242 46.9639C47.1771 45.1432 45.2129 42.4665 45.1319 42.3542C45.0674 42.264 45.0877 42.1388 45.1779 42.0725C45.2681 42.0081 45.3933 42.0284 45.4595 42.1186C45.4798 42.1462 47.4459 44.821 51.5843 46.5939C55.6583 48.3409 58.7142 48.1476 59.7746 47.5898C59.8722 47.5383 59.9955 47.5769 60.0471 47.6745C60.0986 47.7721 60.06 47.8954 59.9624 47.9469C59.5298 48.1734 58.6958 48.3869 57.5084 48.3869Z" fill="#3F3F44"/>
<path d="M40.3841 36.0748C40.3399 36.0748 40.2958 36.0601 40.2571 36.0306C40.1706 35.9607 40.1577 35.8336 40.2276 35.7471C41.1665 34.5892 41.6949 33.1312 41.717 31.64C41.739 30.1489 41.253 28.6761 40.351 27.4906C40.2829 27.4022 40.3013 27.2752 40.3896 27.2089C40.478 27.1408 40.605 27.1592 40.6713 27.2476C41.6286 28.5049 42.144 30.066 42.1201 31.6455C42.0962 33.225 41.5347 34.7714 40.5406 35.9993C40.5019 36.049 40.443 36.0748 40.3841 36.0748Z" fill="#3F3F44"/>
<path d="M108.095 104.053H92.8358C92.7254 104.053 92.6352 103.963 92.6352 103.852C92.6352 103.742 92.7254 103.652 92.8358 103.652H108.095C108.206 103.652 108.296 103.742 108.296 103.852C108.298 103.963 108.208 104.053 108.095 104.053Z" fill="#3F3F44"/>
<path d="M128.044 104.745H118.011C117.9 104.745 117.81 104.655 117.81 104.545C117.81 104.434 117.9 104.344 118.011 104.344H128.044C128.154 104.344 128.244 104.434 128.244 104.545C128.244 104.655 128.154 104.745 128.044 104.745Z" fill="#3F3F44"/>
<path d="M89.5701 103.891C89.5204 103.891 89.4725 103.873 89.4338 103.838C88.8429 103.293 88.4324 102.582 88.0366 101.894C87.5156 100.99 87.0222 100.134 86.168 99.6752C85.4814 99.3071 84.6898 99.2684 83.8503 99.2279C83.0532 99.1892 82.2284 99.1506 81.4884 98.8008C81.3871 98.7529 81.3448 98.6333 81.3927 98.5339C81.4405 98.4326 81.5583 98.3903 81.6596 98.4381C82.3279 98.7529 83.0771 98.7879 83.8706 98.8266C84.7174 98.8671 85.5918 98.9094 86.3595 99.3218C87.3149 99.8354 87.8599 100.78 88.3864 101.693C88.7693 102.356 89.1632 103.04 89.7081 103.543C89.7891 103.619 89.7947 103.746 89.7192 103.827C89.6787 103.871 89.6253 103.891 89.5701 103.891Z" fill="#3F3F44"/>
<path d="M91.9338 103.874C91.8657 103.874 91.7994 103.839 91.7626 103.779L88.1323 97.8638C87.6831 97.1329 87.2578 96.5034 86.608 96.2235C86.0833 95.9989 85.4593 96.0357 84.9107 96.067L81.7774 96.2493C81.6596 96.2603 81.5712 96.172 81.5657 96.0597C81.5583 95.9492 81.643 95.8535 81.7553 95.848L84.8886 95.6657C85.4832 95.6307 86.157 95.5921 86.7682 95.8553C87.5266 96.1812 87.9905 96.8642 88.4765 97.6539L92.1069 103.569C92.1658 103.663 92.1345 103.788 92.0406 103.845C92.0074 103.865 91.9706 103.874 91.9338 103.874Z" fill="#3F3F44"/>
<path d="M109.516 108.158C109.498 108.158 109.482 108.156 109.463 108.151C109.356 108.121 109.292 108.011 109.321 107.904C109.585 106.927 110.168 106.089 110.73 105.277C111.219 104.572 111.727 103.843 112.004 103.039C112.072 102.844 112.142 102.589 112.09 102.369C112.051 102.205 111.908 102.032 111.742 102.032C111.74 102.032 111.737 102.032 111.735 102.032C111.624 102.032 111.536 101.943 111.534 101.833C111.532 101.722 111.621 101.63 111.731 101.629C112.121 101.621 112.405 101.958 112.48 102.277C112.556 102.599 112.469 102.925 112.383 103.171C112.088 104.027 111.565 104.78 111.059 105.507C110.49 106.325 109.953 107.098 109.708 108.009C109.686 108.099 109.605 108.158 109.516 108.158Z" fill="#3F3F44"/>
<path d="M111.299 109.526C111.271 109.526 111.242 109.521 111.214 109.508C111.113 109.462 111.068 109.342 111.116 109.241C111.457 108.504 111.982 107.877 112.488 107.271C113.012 106.641 113.51 106.049 113.826 105.338C114.358 104.147 114.307 102.751 114.261 101.518C114.226 100.566 114.189 99.5832 113.933 98.6609C113.903 98.5541 113.966 98.4436 114.073 98.4142C114.18 98.3829 114.29 98.4473 114.32 98.5541C114.588 99.5224 114.627 100.529 114.662 101.505C114.708 102.781 114.761 104.228 114.193 105.504C113.854 106.264 113.316 106.908 112.795 107.53C112.306 108.118 111.797 108.723 111.479 109.412C111.448 109.484 111.376 109.526 111.299 109.526Z" fill="#3F3F44"/>
<path d="M112.983 109.449C112.942 109.449 112.9 109.436 112.865 109.41C112.775 109.346 112.757 109.219 112.821 109.128L114.559 106.75C115.036 106.096 115.529 105.421 115.875 104.683C116.698 102.923 116.663 100.852 116.634 99.0236C116.632 98.9131 116.72 98.8211 116.831 98.8192C116.945 98.8229 117.033 98.9057 117.035 99.0162C117.066 100.887 117.101 103.007 116.24 104.852C115.877 105.625 115.373 106.317 114.883 106.986L113.145 109.364C113.106 109.421 113.046 109.449 112.983 109.449Z" fill="#3F3F44"/>
<path d="M20.1431 61.2919C20.1026 61.2919 20.0602 61.279 20.0252 61.2532C18.3813 60.064 18.2211 57.6837 18.9115 55.9458C19.565 54.3037 20.8224 53.0095 22.0374 51.7596L22.3135 51.476C23.5249 50.2261 24.8503 48.7423 25.2664 46.9547C25.5149 45.8815 25.4302 44.7327 25.3474 43.619C25.248 42.2935 25.1467 40.9202 25.5996 39.6407C26.0727 38.3079 27.146 37.1002 28.8838 35.946C29.3293 35.6496 29.7932 35.3698 30.2424 35.0973C31.1647 34.5377 32.1183 33.9596 32.932 33.2416C34.3072 32.0285 35.0399 30.541 34.9423 29.1585C34.9349 29.048 35.0178 28.9523 35.1282 28.9431C35.2424 28.9339 35.3344 29.0185 35.3436 29.129C35.4504 30.6367 34.668 32.2457 33.1989 33.5435C32.3576 34.2854 31.3893 34.8727 30.4523 35.4415C30.0068 35.7122 29.5465 35.9901 29.1084 36.281C27.446 37.3837 26.4243 38.5269 25.9807 39.7751C25.5554 40.9754 25.6493 42.2456 25.7505 43.5895C25.8352 44.7327 25.9236 45.9128 25.6603 47.0449C25.2222 48.9319 23.8525 50.4654 22.6044 51.7559L22.3283 52.0394C21.139 53.2617 19.9111 54.5246 19.287 56.0931C18.6538 57.6873 18.7863 59.8578 20.2627 60.9274C20.3529 60.9918 20.3732 61.1188 20.3088 61.209C20.2664 61.2643 20.2057 61.2919 20.1431 61.2919Z" fill="#3F3F44"/>
<path d="M38.8487 109.451C36.0929 109.451 33.9206 109.405 32.8436 109.29C32.7332 109.279 32.6522 109.18 32.665 109.07C32.6761 108.959 32.7737 108.878 32.886 108.891C37.7331 109.405 65.0562 108.504 67.2819 108.429C69.0326 102.834 67.5617 98.2026 67.2856 97.422C65.9086 97.3079 53.8928 96.2898 49.6531 95.3491C49.1487 95.2368 48.637 95.119 48.116 94.9975C44.0144 94.0439 39.366 92.9651 33.5745 94.3219C33.4658 94.3495 33.3572 94.2795 33.3333 94.1728C33.3075 94.0642 33.3756 93.9555 33.4824 93.9316C39.3642 92.5528 44.0622 93.6444 48.2062 94.6072C48.7253 94.7287 49.2353 94.8466 49.7378 94.957C54.1892 95.9437 67.3113 97.0207 67.4439 97.0317C67.5194 97.0372 67.5856 97.087 67.6151 97.1569C67.6353 97.2085 69.6475 102.376 67.6206 108.687C67.5948 108.768 67.5212 108.823 67.4365 108.827C67.2064 108.836 49.0401 109.451 38.8487 109.451Z" fill="#3F3F44"/>
<path d="M39.0237 93.683C38.9261 93.683 38.8414 93.6131 38.8248 93.5155L36.4132 79.0734C36.3948 78.9629 36.4684 78.8599 36.5789 78.8414C36.6875 78.823 36.7925 78.8967 36.8109 79.0071L39.2225 93.4492C39.2409 93.5597 39.1672 93.6628 39.0568 93.6812C39.0457 93.6812 39.0347 93.683 39.0237 93.683Z" fill="#3F3F44"/>
<path d="M80.4059 94.9956C80.3801 94.9956 80.3525 94.99 80.3268 94.979C80.2255 94.9367 80.1776 94.817 80.22 94.7158C80.2273 94.6973 81.0116 92.7828 81.1607 86.8863C81.3117 80.9861 74.688 70.2203 74.6217 70.1117C74.5628 70.0178 74.5923 69.8927 74.6861 69.8356C74.78 69.7767 74.9052 69.8061 74.9623 69.9C75.2384 70.3455 81.7148 80.8756 81.562 86.8955C81.4092 92.8951 80.6213 94.7949 80.5882 94.8741C80.5587 94.9514 80.4851 94.9956 80.4059 94.9956Z" fill="#3F3F44"/>
<path d="M63.7731 108.751C63.6627 108.751 63.5725 108.661 63.5725 108.55C63.5688 104.592 63.0441 100.647 62.0132 96.8255C61.9837 96.7187 62.0482 96.6082 62.1549 96.5788C62.2617 96.5512 62.3722 96.6138 62.4016 96.7205C63.4417 100.575 63.9719 104.556 63.9756 108.548C63.9738 108.661 63.8836 108.751 63.7731 108.751Z" fill="#3F3F44"/>
<path d="M98.5078 113.884C98.4047 113.884 98.3163 113.806 98.3071 113.701C98.1009 111.455 97.6444 109.228 96.9504 107.083C96.9154 106.978 96.9743 106.864 97.0792 106.829C97.186 106.796 97.2983 106.853 97.3333 106.958C98.0365 109.132 98.4986 111.389 98.7085 113.663C98.7195 113.773 98.6367 113.871 98.5262 113.882C98.5188 113.882 98.5133 113.884 98.5078 113.884Z" fill="#3F3F44"/>
<path d="M47.4275 94.8355C47.3557 94.8355 47.2858 94.7968 47.2508 94.7287L42.1422 85.1651C42.1164 85.1191 42.1109 85.0638 42.1275 85.0123L44.112 78.4254L38.0296 71.9656C37.9983 71.9306 37.978 71.8883 37.9762 71.8404C37.7847 68.8765 40.3381 59.6921 40.4467 59.3019C40.4762 59.1951 40.5885 59.1325 40.6952 59.1619C40.802 59.1914 40.8646 59.3019 40.8352 59.4105C40.8094 59.5044 38.2321 68.7679 38.3738 71.7429L44.4857 78.2321C44.5354 78.2837 44.552 78.3592 44.5317 78.4291L42.538 85.0473L47.6061 94.5372C47.6595 94.6348 47.6208 94.7563 47.5233 94.8097C47.492 94.8263 47.4607 94.8355 47.4275 94.8355Z" fill="#3F3F44"/>
<path d="M69.8297 97.4348C69.8132 97.4348 69.7966 97.433 69.78 97.4293C69.6733 97.4017 69.607 97.2912 69.6346 97.1845L73.2373 83.105L68.9755 77.8841C68.9295 77.8271 68.9166 77.7498 68.9443 77.6816L71.6854 70.8076C71.0742 68.0757 67.3003 58.5286 67.2616 58.431C67.2211 58.328 67.2708 58.2101 67.3739 58.1696C67.477 58.1273 67.5949 58.1788 67.6354 58.2819C67.7937 58.6814 71.5179 68.0996 72.0922 70.7818C72.1014 70.8205 72.0978 70.861 72.083 70.8978L69.364 77.7185L73.6147 82.9265C73.6552 82.9762 73.6699 83.0424 73.6534 83.1032L70.0249 97.2802C70.0009 97.3741 69.9199 97.4348 69.8297 97.4348Z" fill="#3F3F44"/>
<path d="M95.634 101.73C95.6138 101.73 95.5935 101.726 95.5733 101.721C95.4665 101.687 95.4076 101.575 95.4407 101.468L97.3737 95.3123C97.4069 95.2055 97.5192 95.1448 97.6259 95.1816C97.7327 95.2147 97.7916 95.327 97.7585 95.4338L95.8255 101.59C95.7997 101.675 95.7206 101.73 95.634 101.73Z" fill="#3F3F44"/>
<path d="M97.0461 102.048C97.0295 102.048 97.0111 102.046 96.9945 102.041C96.8878 102.013 96.8233 101.903 96.8509 101.794L97.6849 98.6351C97.7125 98.5283 97.8248 98.4621 97.9316 98.4915C98.0383 98.5191 98.1028 98.6296 98.0752 98.7382L97.2412 101.897C97.2173 101.987 97.1363 102.048 97.0461 102.048Z" fill="#3F3F44"/>
<path d="M49.8373 41.9547C49.3641 41.9547 48.891 41.9418 48.4198 41.9124C46.5991 41.7964 45.0674 41.4356 43.7383 40.8078C42.1716 40.0659 40.9069 38.9209 40.1761 37.5788C40.1227 37.4813 40.1595 37.3598 40.2571 37.3064C40.3546 37.253 40.4761 37.2898 40.5295 37.3874C41.2199 38.6539 42.4202 39.7401 43.9113 40.4452C45.1926 41.0508 46.6764 41.4006 48.4455 41.5129C50.0177 41.6123 51.6248 41.5129 53.1786 41.4153C53.2945 41.4061 53.3847 41.4927 53.3921 41.6031C53.3995 41.7136 53.3148 41.8093 53.2043 41.8167C52.0998 41.8848 50.9694 41.9547 49.8373 41.9547Z" fill="#3F3F44"/>
<path d="M51.4684 32.2899C52.1699 32.2899 52.7386 31.5399 52.7386 30.6147C52.7386 29.6895 52.1699 28.9395 51.4684 28.9395C50.7668 28.9395 50.1981 29.6895 50.1981 30.6147C50.1981 31.5399 50.7668 32.2899 51.4684 32.2899Z" fill="#3F3F44"/>
<path d="M62.0519 32.2899C62.7534 32.2899 63.3221 31.5399 63.3221 30.6147C63.3221 29.6895 62.7534 28.9395 62.0519 28.9395C61.3503 28.9395 60.7816 29.6895 60.7816 30.6147C60.7816 31.5399 61.3503 32.2899 62.0519 32.2899Z" fill="#3F3F44"/>
<path d="M49.3734 28.8197C49.2537 28.8197 49.1341 28.7663 49.0549 28.6632C48.9187 28.4883 48.95 28.2343 49.1267 28.098C50.1558 27.3009 51.4408 26.883 52.7386 26.9198C52.9614 26.9272 53.1362 27.1113 53.1289 27.3341C53.1215 27.5568 52.9393 27.7372 52.7147 27.7243C51.6101 27.6894 50.4872 28.0594 49.6201 28.7332C49.5464 28.7921 49.4599 28.8197 49.3734 28.8197Z" fill="#3F3F44"/>
<path d="M64.2426 28.5749C64.1358 28.5749 64.029 28.5325 63.9499 28.4497C63.2172 27.6746 62.0997 27.2604 61.0412 27.369C60.824 27.393 60.6233 27.231 60.5994 27.0101C60.5773 26.7892 60.7375 26.5922 60.9584 26.5682C62.2617 26.4375 63.6314 26.9456 64.5335 27.8974C64.6862 28.0594 64.6789 28.3134 64.5187 28.4662C64.4414 28.5399 64.342 28.5749 64.2426 28.5749Z" fill="#3F3F44"/>
<path d="M57.1439 39.0185C57.0482 39.0185 56.9635 38.9504 56.947 38.8528C56.9267 38.7442 56.9985 38.6393 57.109 38.619C58.1914 38.4202 59.2021 37.7538 59.8096 36.837C60.0508 36.4725 60.141 36.1724 60.0821 35.9165C60.0213 35.6496 59.7912 35.4287 59.5684 35.2152L59.504 35.1526C57.9153 33.6062 57.0353 31.3621 57.1531 29.1475C57.1587 29.037 57.247 28.9505 57.3648 28.9578C57.4753 28.9634 57.5618 29.0591 57.5545 29.1695C57.444 31.27 58.2779 33.3982 59.7838 34.8635L59.8464 34.9243C60.0986 35.1673 60.384 35.4434 60.4723 35.8245C60.557 36.1927 60.4502 36.5959 60.1428 37.0579C59.4653 38.0778 58.3847 38.7921 57.1789 39.013C57.1679 39.0185 57.1568 39.0185 57.1439 39.0185Z" fill="#3F3F44"/>
<path d="M57.247 41.4909C57.2415 41.4909 57.236 41.4909 57.2305 41.4909C56.2861 41.4172 55.3546 41.0546 54.6071 40.471C53.8597 39.8893 53.2835 39.0719 52.9816 38.1735C52.9466 38.0686 53.0037 37.9545 53.1086 37.9195C53.2136 37.8845 53.3277 37.9416 53.3627 38.0465C53.6388 38.8712 54.169 39.6205 54.8538 40.1544C55.5387 40.6901 56.3947 41.0214 57.2618 41.0896C57.3722 41.0988 57.4551 41.1945 57.4459 41.3068C57.4403 41.4099 57.352 41.4909 57.247 41.4909Z" fill="#3F3F44"/>
<path d="M55.4098 42.7041H51.761C51.6009 42.7041 51.4683 42.5733 51.4683 42.4113V40.8668C51.4683 40.7066 51.599 40.5741 51.761 40.5741H55.4098C55.5699 40.5741 55.7025 40.7048 55.7025 40.8668V42.4113C55.7025 42.5715 55.5718 42.7041 55.4098 42.7041Z" fill="url(#paint2_linear_23_5979)" fill-opacity="0.9"/>
<path d="M50.7338 35.4287C50.7338 36.7818 49.6366 37.8789 48.2835 37.8789C46.9304 37.8789 45.8333 36.7818 45.8333 35.4287C45.8333 34.0756 46.9304 32.9784 48.2835 32.9784C49.6366 32.9784 50.7338 34.0756 50.7338 35.4287Z" fill="#FFD0C0"/>
<path d="M35.6492 67.6394C35.5535 67.6394 35.4669 67.5694 35.4504 67.4719C35.119 65.537 34.4434 63.7016 33.4382 62.0135C33.3812 61.9178 33.4125 61.7944 33.5082 61.7374C33.6039 61.6803 33.7273 61.7116 33.7843 61.8073C34.8134 63.5378 35.5074 65.4211 35.8462 67.4038C35.8646 67.5124 35.7909 67.6173 35.6823 67.6357C35.6713 67.6394 35.6602 67.6394 35.6492 67.6394Z" fill="#3F3F44"/>
<path d="M75.9048 70.0602C75.868 70.0602 75.8294 70.0492 75.7962 70.0289C75.7023 69.9682 75.6766 69.8448 75.7373 69.7509L78.009 66.2348C78.0698 66.1409 78.1931 66.1133 78.287 66.1759C78.3809 66.2366 78.4067 66.36 78.3459 66.4538L76.0742 69.97C76.0355 70.0271 75.9711 70.0602 75.9048 70.0602Z" fill="#3F3F44"/>
<path d="M76.8824 70.3916C76.8235 70.3916 76.7646 70.3658 76.7241 70.3143C76.656 70.2278 76.6707 70.1007 76.7572 70.0326L79.4284 67.9248C79.5149 67.8566 79.642 67.8714 79.7101 67.9579C79.7782 68.0444 79.7635 68.1714 79.6769 68.2396L77.0057 70.3474C76.9689 70.3769 76.9247 70.3916 76.8824 70.3916Z" fill="#3F3F44"/>
<path d="M28.7218 100.776C28.6813 100.776 28.6408 100.763 28.604 100.739C28.5138 100.675 28.4935 100.548 28.5579 100.458L32.2656 95.3086C32.33 95.2184 32.4552 95.1982 32.5472 95.2626C32.6374 95.327 32.6577 95.4541 32.5933 95.5443L28.8856 100.693C28.847 100.749 28.7844 100.776 28.7218 100.776Z" fill="#3F3F44"/>
<path d="M27.6191 97.3428C27.5546 97.3428 27.4902 97.3115 27.4516 97.2526C27.3908 97.1605 27.4147 97.0353 27.5086 96.9727L30.9769 94.6698C31.069 94.609 31.1942 94.6329 31.2549 94.7268C31.3157 94.8189 31.2917 94.944 31.1978 95.0066L27.7295 97.3096C27.6964 97.3317 27.6577 97.3428 27.6191 97.3428Z" fill="#3F3F44"/>
<path d="M17.0172 48.1789L18.3188 49.4804C19.5264 48.2599 20.4303 46.7356 20.9218 45.0825L19.1619 44.5633C19.4859 43.4698 19.5872 42.3303 19.4583 41.2036L21.279 41.0011C21.0691 39.2946 20.4837 37.6138 19.4638 36.2184L17.9727 37.264C17.6892 36.8719 17.3725 36.489 17.0154 36.13C16.5496 35.6643 16.0507 35.274 15.5242 34.9353L16.4963 33.3834C15.0382 32.4795 13.3519 31.9125 11.6325 31.8259L11.5184 33.654C10.3917 33.5803 9.25219 33.735 8.17157 34.1124L7.57142 32.3782C5.93299 32.9378 4.45473 33.9301 3.31519 35.204L4.67196 36.4393C3.88956 37.3027 3.31519 38.295 2.94517 39.3406L1.21837 38.7331C0.631118 40.3586 0.49673 42.1259 0.77287 43.8196L2.58803 43.5287C2.76291 44.6351 3.16055 45.7084 3.77543 46.6859L2.22352 47.6579C3.13478 49.1362 4.42896 50.3217 5.92747 51.1851L6.82401 49.5872C7.82915 50.1469 8.92266 50.4985 10.0346 50.6126L9.83208 52.448C11.5386 52.6432 13.293 52.3873 14.891 51.7466L14.2025 50.0475C15.2223 49.6351 16.187 49.0073 17.0172 48.1789ZM7.27687 45.8704C5.22608 43.8196 5.22608 40.4875 7.27687 38.4367C9.32767 36.3859 12.6598 36.3859 14.7105 38.4367C16.7613 40.4875 16.754 43.8141 14.7032 45.8649C12.6524 47.9157 9.32583 47.9212 7.27687 45.8704Z" fill="white"/>
<path d="M10.966 52.715C10.5794 52.715 10.1928 52.6929 9.80993 52.6487C9.69948 52.6358 9.62032 52.5364 9.6332 52.4278L9.81361 50.7912C8.80663 50.6623 7.82909 50.3494 6.90311 49.8597L6.1023 51.2846C6.07653 51.3324 6.03235 51.3656 5.9808 51.3803C5.92925 51.395 5.87403 51.3876 5.828 51.36C4.24848 50.4488 2.94327 49.2062 2.0541 47.7629C1.99703 47.669 2.02464 47.5456 2.11853 47.4867L3.50107 46.6215C2.97088 45.7323 2.60822 44.7714 2.42412 43.7588L0.805947 44.0184C0.695491 44.0368 0.59424 43.9613 0.575831 43.8527C0.286805 42.0836 0.443284 40.2905 1.03054 38.665C1.0692 38.5619 1.18334 38.5067 1.28643 38.5435L2.82545 39.0847C3.19363 38.1127 3.72014 37.2291 4.39024 36.454L3.18075 35.3532C3.09975 35.2795 3.09238 35.1525 3.16602 35.0697C4.34421 33.7515 5.84641 32.7538 7.50693 32.1868C7.61186 32.1518 7.726 32.207 7.76282 32.3119L8.29853 33.8565C9.28343 33.5362 10.3015 33.3962 11.3305 33.4404L11.4318 31.8112C11.4392 31.7008 11.533 31.6179 11.6435 31.6234C13.3537 31.71 15.0695 32.2604 16.603 33.2122C16.649 33.2398 16.6803 33.2858 16.6932 33.3373C16.7061 33.3889 16.6968 33.4441 16.6674 33.4901L15.8003 34.8745C16.3011 35.2096 16.7466 35.5741 17.1589 35.9864C17.4553 36.2828 17.7443 36.6179 18.0205 36.9842L19.3515 36.0509C19.4417 35.9883 19.565 36.0085 19.6295 36.0969C20.6162 37.4481 21.255 39.1344 21.4814 40.9735C21.4888 41.0269 21.4722 41.0803 21.4391 41.1226C21.4059 41.165 21.3562 41.1926 21.3029 41.1981L19.6792 41.3785C19.7712 42.4021 19.681 43.4256 19.4104 44.4234L20.9807 44.8855C21.0322 44.9002 21.0746 44.9352 21.1004 44.9831C21.1261 45.0309 21.1316 45.0843 21.1169 45.1359C20.6143 46.8203 19.6976 48.3704 18.4641 49.6185C18.4273 49.6572 18.3758 49.6774 18.3224 49.6774C18.269 49.6774 18.2175 49.6553 18.1806 49.6185L17.019 48.4569C16.2661 49.1767 15.41 49.7455 14.4693 50.1524L15.0824 51.6675C15.1026 51.7172 15.1026 51.7724 15.0805 51.8221C15.0603 51.8718 15.0198 51.9105 14.9701 51.9307C13.6796 52.4499 12.3154 52.715 10.966 52.715ZM10.0548 52.2695C11.5772 52.4112 13.1512 52.194 14.6295 51.6343L14.0183 50.1229C13.998 50.0732 13.998 50.018 14.0201 49.9683C14.0404 49.9186 14.0809 49.8799 14.1306 49.8597C15.156 49.4455 16.0801 48.8306 16.8773 48.0353C16.9564 47.9562 17.0834 47.9562 17.1626 48.0353L18.3206 49.1933C19.392 48.0666 20.2001 46.6988 20.6751 45.2169L19.1103 44.7548C19.0588 44.7401 19.0164 44.7051 18.9907 44.6572C18.9649 44.6094 18.9594 44.556 18.9741 44.5044C19.2926 43.4312 19.3901 42.3284 19.2649 41.2239C19.2594 41.1705 19.2742 41.1171 19.3073 41.0748C19.3404 41.0324 19.3901 41.0066 19.4417 41.0011L21.058 40.8207C20.8297 39.2007 20.2683 37.7132 19.4214 36.4945L18.0941 37.426C18.0039 37.4886 17.8806 37.4684 17.8161 37.38C17.5161 36.9677 17.2013 36.5939 16.8791 36.2718C16.4428 35.8355 15.966 35.4526 15.4229 35.1046C15.3309 35.0457 15.3014 34.9224 15.3603 34.8285L16.2237 33.4496C14.8522 32.6341 13.339 32.1481 11.8276 32.0376L11.7263 33.665C11.7227 33.7184 11.6987 33.7681 11.6582 33.8031C11.6177 33.8381 11.5643 33.8546 11.5128 33.8528C10.4027 33.7792 9.30368 33.9301 8.24698 34.3001C8.19728 34.3186 8.14205 34.3149 8.09235 34.2909C8.04448 34.267 8.00766 34.2265 7.98925 34.175L7.45538 32.6323C5.99553 33.1643 4.67374 34.0443 3.606 35.1893L4.81365 36.2883C4.89649 36.3638 4.90202 36.4908 4.82654 36.5718C4.0828 37.3911 3.51579 38.3447 3.14025 39.405C3.10343 39.51 2.98929 39.5652 2.88436 39.5284L1.34718 38.9871C0.859334 40.436 0.721264 42.0173 0.945858 43.5858L2.56035 43.3281C2.61374 43.3189 2.66713 43.3317 2.70947 43.363C2.75181 43.3943 2.78126 43.4422 2.79047 43.4937C2.96536 44.5909 3.35379 45.6274 3.95025 46.5755C3.97787 46.6215 3.98707 46.6749 3.97603 46.7283C3.96498 46.7798 3.93185 46.8258 3.88582 46.8534L2.50513 47.7168C3.32066 48.9779 4.47308 50.0732 5.85562 50.9035L6.65274 49.4841C6.70797 49.3866 6.82947 49.3534 6.9252 49.4068C7.91746 49.9591 8.97047 50.296 10.0585 50.4083C10.1118 50.4138 10.1597 50.4396 10.1947 50.4819C10.2278 50.5243 10.2444 50.5776 10.2389 50.631L10.0548 52.2695ZM10.9826 47.6064C9.52827 47.6064 8.1623 47.0412 7.13322 46.0121C5.00511 43.884 5.00511 40.4212 7.13322 38.2931C9.26134 36.165 12.7241 36.165 14.8522 38.2931C16.9767 40.4176 16.973 43.8767 14.8449 46.0048C13.814 47.0357 12.4461 47.6027 10.99 47.6045C10.9881 47.6064 10.9844 47.6064 10.9826 47.6064ZM10.9937 37.1002C9.69948 37.1002 8.4053 37.5936 7.41856 38.5785C5.44693 40.5501 5.44693 43.757 7.41856 45.7286C8.37033 46.6804 9.63689 47.2051 10.9826 47.2051C10.9844 47.2051 10.9863 47.2051 10.99 47.2051C12.3394 47.2032 13.6078 46.6767 14.5614 45.7231C16.533 43.7515 16.5348 40.5483 14.5687 38.5803C13.582 37.5936 12.2878 37.1002 10.9937 37.1002Z" fill="#FF622E"/>
<path d="M25.086 31.883L25.8334 32.6304C26.5274 31.929 27.0466 31.0546 27.3282 30.1047L26.3176 29.8064C26.5035 29.1787 26.5624 28.5251 26.4888 27.8771L27.5344 27.7612C27.4147 26.7818 27.0779 25.8171 26.4924 25.0145L25.6364 25.6146C25.4744 25.39 25.2922 25.1691 25.086 24.9648C24.819 24.6979 24.5319 24.4733 24.2299 24.28L24.7877 23.389C23.9501 22.8698 22.9818 22.544 21.9951 22.4943L21.9288 23.5436C21.2826 23.5013 20.6272 23.5896 20.0068 23.8068L19.6626 22.8109C18.7219 23.1331 17.8732 23.7019 17.2178 24.4346L17.9966 25.1434C17.5474 25.6386 17.2178 26.2093 17.0043 26.8094L16.012 26.4615C15.6751 27.3948 15.5978 28.4092 15.7561 29.383L16.7981 29.2173C16.8994 29.8525 17.1276 30.4692 17.4792 31.0307L16.5882 31.5885C17.1111 32.4371 17.8548 33.1183 18.7145 33.6135L19.23 32.6949C19.808 33.017 20.4339 33.2177 21.0746 33.284L20.9586 34.337C21.938 34.4493 22.945 34.302 23.8636 33.9338L23.4678 32.9581C24.0569 32.7188 24.6092 32.358 25.086 31.883ZM19.4932 30.5575C18.315 29.3793 18.315 27.4666 19.4932 26.2884C20.6714 25.1102 22.5841 25.1102 23.7623 26.2884C24.9405 27.4666 24.9369 29.3757 23.7587 30.5539C22.5805 31.7302 20.6714 31.7357 19.4932 30.5575Z" fill="#FFA182"/>
<path d="M10.6844 26.5572L11.2477 27.1206C11.7705 26.5922 12.1608 25.9332 12.3743 25.2189L11.6122 24.9943C11.7521 24.5212 11.7963 24.0278 11.7411 23.5418L12.529 23.4534C12.4388 22.7152 12.1847 21.988 11.7447 21.3842L11.1004 21.8371C10.9771 21.6677 10.8408 21.502 10.6862 21.3474C10.4855 21.1467 10.2683 20.9774 10.0419 20.8301L10.4616 20.1582C9.83202 19.7679 9.10117 19.523 8.35744 19.4844L8.30773 20.2741C7.81988 20.2428 7.32836 20.3091 6.86076 20.473L6.60119 19.7237C5.89243 19.9667 5.25363 20.3956 4.76026 20.9461L5.34752 21.4799C5.00878 21.8537 4.76026 22.2826 4.6001 22.7336L3.85268 22.4704C3.59863 23.1736 3.53972 23.9376 3.65938 24.6703L4.44362 24.5451C4.5191 25.0237 4.69214 25.4876 4.95724 25.9111L4.2853 26.3308C4.67926 26.9696 5.2389 27.4832 5.88691 27.8569L6.27534 27.1647C6.7098 27.4077 7.18292 27.5587 7.6634 27.6084L7.57504 28.4018C8.31325 28.4865 9.07172 28.3761 9.76391 28.0981L9.46568 27.3636C9.9075 27.1868 10.3254 26.9162 10.6844 26.5572ZM6.47048 25.5594C5.58316 24.6721 5.58316 23.2307 6.47048 22.3452C7.35781 21.4579 8.79926 21.4579 9.68475 22.3452C10.5721 23.2325 10.5684 24.6703 9.68106 25.5576C8.79558 26.4431 7.35781 26.4468 6.47048 25.5594Z" fill="#FFD0C0"/>
</g>
<defs>
<linearGradient id="paint0_linear_23_5979" x1="60.4999" y1="108.642" x2="60.4999" y2="125.951" gradientUnits="userSpaceOnUse">
<stop stop-color="#F7F7F7" stop-opacity="0.2"/>
<stop offset="1" stop-color="#F7F7F7" stop-opacity="0.4"/>
</linearGradient>
<linearGradient id="paint1_linear_23_5979" x1="39.4093" y1="25.9755" x2="39.4093" y2="37.6396" gradientUnits="userSpaceOnUse">
<stop stop-color="#F7F7F7" stop-opacity="0.2"/>
<stop offset="1" stop-color="#F7F7F7" stop-opacity="0.4"/>
</linearGradient>
<linearGradient id="paint2_linear_23_5979" x1="53.5854" y1="40.5741" x2="53.5854" y2="42.7041" gradientUnits="userSpaceOnUse">
<stop stop-color="#F7F7F7" stop-opacity="0.2"/>
<stop offset="1" stop-color="#F7F7F7" stop-opacity="0.4"/>
</linearGradient>
<clipPath id="clip0_23_5979">
<rect width="141.131" height="119.524" fill="white" transform="translate(0.434692)"/>
</clipPath>
</defs>
</svg>
